# xmcd CD database file
#
# Track frame offsets:
#	150
#	51917
#	106114
#	144983
#	186430
#	210536
#
# Disc length: 3449 seconds
#
# Revision: 0
# Processed by: cddbd v1.5.2PL0 Copyright (c) Steve Scherf et al.
# Submitted via: CDex 1.70beta2
#
DISCID=510d7706
DTITLE=Akira Sakata and Chikaramochi - Friendly Pants
DYEAR=2007
DGENRE=Jazz
TTITLE0=Friendly Pants
TTITLE1=Un
TTITLE2=In Case Let's Go to Galaxy
TTITLE3=That Day of Rain
TTITLE4=With Saigyo Path
TTITLE5=Yo! Yo! Dime
EXTD=YEAR: 2007
EXTT0=
EXTT1=
EXTT2=
EXTT3=
EXTT4=
EXTT5=
PLAYORDER=
